<svg xmlns="http://www.w3.org/2000/svg" width="31" height="31" viewBox="0 0 31 31" fill="none">
<rect x="0.46875" y="0.919922" width="30" height="30" rx="15" fill="#3BB77E"/>
<g clip-path="url(#clip0_6511_2029)">
<g clip-path="url(#clip1_6511_2029)">
<path fill-rule="evenodd" clip-rule="evenodd" d="M13.9317 15.9718V21.7008C13.9317 21.7782 13.9962 21.8556 14.0865 21.8556H16.2155C16.2929 21.8556 16.3704 21.7911 16.3704 21.7008V15.8685H17.9058C17.9833 15.8685 18.0478 15.804 18.0607 15.7266L18.1897 13.9847C18.2026 13.8943 18.1252 13.8169 18.0349 13.8169H16.3575V12.5782C16.3575 12.2814 16.5897 12.0492 16.8865 12.0492H18.0736C18.151 12.0492 18.2284 11.9847 18.2284 11.8943V10.1524C18.2284 10.075 18.1639 9.99756 18.0736 9.99756H16.0607C14.8865 9.99756 13.9317 10.9524 13.9317 12.1266V13.8169H12.8736C12.7962 13.8169 12.7188 13.8814 12.7188 13.9718V15.7266C12.7188 15.804 12.7833 15.8814 12.8736 15.8814H13.9317V15.9718Z" fill="white"/>
</g>
</g>
<defs>
<clipPath id="clip0_6511_2029">
<rect width="16" height="30" fill="white" transform="translate(7.46875 0.919922)"/>
</clipPath>
<clipPath id="clip1_6511_2029">
<rect width="16" height="30" fill="white" transform="translate(7.46875 0.919922)"/>
</clipPath>
</defs>
</svg>