<svg xmlns="http://www.w3.org/2000/svg" width="12" height="13" viewBox="0 0 12 13" fill="none">
<path d="M7.94141 12.5601L4.94141 10.3201V7.76006L0.941406 3.24006V2.04006C0.941406 1.64006 1.08141 1.29339 1.36141 1.00006C1.64141 0.706725 1.99474 0.560059 2.42141 0.560059H10.4214C10.8481 0.560059 11.2081 0.706725 11.5014 1.00006C11.7947 1.29339 11.9414 1.65339 11.9414 2.08006V3.24006L7.94141 7.76006V12.5601ZM5.94141 9.80006L6.94141 10.5601V7.36006L10.9414 2.88006V2.04006C10.9414 1.90673 10.8881 1.79339 10.7814 1.70006C10.6747 1.60673 10.5547 1.56006 10.4214 1.56006H2.42141C2.28807 1.56006 2.17474 1.60673 2.08141 1.70006C1.98807 1.79339 1.94141 1.90673 1.94141 2.04006V2.88006L5.94141 7.36006V9.80006Z" fill="white"/>
</svg>