<svg xmlns="http://www.w3.org/2000/svg" width="31" height="31" viewBox="0 0 31 31" fill="none">
<rect x="0.46875" y="0.919922" width="30" height="30" rx="15" fill="#3BB77E"/>
<g clip-path="url(#clip0_6511_2040)">
<g clip-path="url(#clip1_6511_2040)">
<path d="M18.7201 12.2553C18.3201 12.2553 17.9976 12.5779 17.9976 12.9779C17.9976 13.3779 18.3201 13.7005 18.7201 13.7005C19.1201 13.7005 19.4427 13.3779 19.4427 12.9779C19.4427 12.5779 19.1201 12.2553 18.7201 12.2553ZM15.4943 13.1844C13.8169 13.1844 12.4492 14.5521 12.4492 16.2295C12.4492 17.907 13.8169 19.2747 15.4943 19.2747C17.1717 19.2747 18.5395 17.907 18.5395 16.2295C18.5395 14.5521 17.1717 13.1844 15.4943 13.1844ZM15.4943 18.1908C14.4105 18.1908 13.5459 17.3134 13.5459 16.2424C13.5459 15.1586 14.4234 14.2941 15.4943 14.2941C16.5782 14.2941 17.4427 15.1715 17.4427 16.2424C17.4427 17.3134 16.5653 18.1908 15.4943 18.1908ZM21.6492 13.7005C21.6492 11.6489 19.9847 9.98438 17.933 9.98438H13.0169C10.9653 9.98438 9.30078 11.6489 9.30078 13.7005V18.6166C9.30078 20.6682 10.9653 22.3328 13.0169 22.3328H17.9201C19.9717 22.3328 21.6363 20.6682 21.6363 18.6166V13.7005H21.6492ZM20.475 18.6037C20.475 20.0102 19.3266 21.1586 17.9201 21.1586H13.0169C11.6105 21.1586 10.4621 20.0102 10.4621 18.6037V13.7005C10.4621 12.2811 11.5976 11.1457 13.0169 11.1457H17.9201C19.3266 11.1457 20.475 12.2941 20.475 13.7005V18.6037Z" fill="white"/>
</g>
</g>
<defs>
<clipPath id="clip0_6511_2040">
<rect width="16" height="30" fill="white" transform="translate(7.46875 0.919922)"/>
</clipPath>
<clipPath id="clip1_6511_2040">
<rect width="16" height="30" fill="white" transform="translate(7.46875 0.919922)"/>
</clipPath>
</defs>
</svg>