<svg xmlns="http://www.w3.org/2000/svg" width="31" height="31" viewBox="0 0 31 31" fill="none">
<rect x="0.46875" y="0.919922" width="30" height="30" rx="15" fill="#3BB77E"/>
<g clip-path="url(#clip0_6511_2045)">
<g clip-path="url(#clip1_6511_2045)">
<path d="M16.216 18.733C15.5063 18.6814 15.2095 18.333 14.6547 17.9975C14.4095 19.2878 14.1127 20.5395 13.4289 21.3911C13.2224 21.6362 12.8224 21.5201 12.8095 21.1975C12.7063 19.133 13.416 17.4943 13.7644 15.7782C13.1063 14.6556 13.8418 12.4104 15.2482 12.9653C16.9773 13.6491 13.7515 17.1201 15.9192 17.5588C18.1773 17.9975 19.1063 13.6362 17.6998 12.2169C15.674 10.1653 11.816 12.1653 12.2934 15.1072C12.3837 15.662 12.8482 15.9201 12.7966 16.4749C12.7579 16.8233 12.4095 17.0169 12.0998 16.8749C11.2095 16.462 10.9257 15.5459 10.9644 14.3717C11.0418 12.1524 12.9644 10.5911 14.8869 10.3717C17.3257 10.1007 19.6095 11.262 19.9192 13.5588C20.2805 16.1265 18.8224 18.9265 16.216 18.733Z" fill="white"/>
</g>
</g>
<defs>
<clipPath id="clip0_6511_2045">
<rect width="16" height="30" fill="white" transform="translate(7.46875 0.919922)"/>
</clipPath>
<clipPath id="clip1_6511_2045">
<rect width="16" height="30" fill="white" transform="translate(7.46875 0.919922)"/>
</clipPath>
</defs>
</svg>