<svg xmlns="http://www.w3.org/2000/svg" width="15" height="25" viewBox="0 0 15 25" fill="none">
<g clip-path="url(#clip0_6511_8569)">
<g clip-path="url(#clip1_6511_8569)">
<g clip-path="url(#clip2_6511_8569)">
<g clip-path="url(#clip3_6511_8569)">
<path fill-rule="evenodd" clip-rule="evenodd" d="M12.8724 3.58286V17.2971L7.51953 11.9638L2.16659 17.2971V3.58286H12.8724ZM12.8724 2.44H2.16659C1.86237 2.44 1.57061 2.5604 1.35549 2.77473C1.14038 2.98906 1.01953 3.27976 1.01953 3.58286V17.2971C1.01966 17.5231 1.08698 17.7439 1.21302 17.9317C1.33906 18.1195 1.51815 18.2659 1.72765 18.3524C1.86641 18.4112 2.01581 18.441 2.16659 18.44C2.31738 18.4405 2.46676 18.4111 2.60605 18.3536C2.74534 18.296 2.87176 18.2114 2.97795 18.1048L7.51953 13.4876L12.0615 18.1048C12.1676 18.2114 12.294 18.296 12.4332 18.3535C12.5724 18.4111 12.7217 18.4404 12.8724 18.44C13.0231 18.441 13.1723 18.4111 13.311 18.3524C13.5205 18.266 13.6997 18.1196 13.8258 17.9318C13.9519 17.744 14.0193 17.5231 14.0195 17.2971V3.58286C14.0195 3.27976 13.8986 2.98906 13.6835 2.77473C13.4684 2.5604 13.1766 2.44 12.8724 2.44Z" fill="#B6B6B6"/>
</g>
</g>
</g>
</g>
<defs>
<clipPath id="clip0_6511_8569">
<rect x="0.1875" y="0.440002" width="14" height="24" rx="4" fill="white"/>
</clipPath>
<clipPath id="clip1_6511_8569">
<rect width="14" height="16" fill="white" transform="translate(0.1875 2.44)"/>
</clipPath>
<clipPath id="clip2_6511_8569">
<rect width="14" height="16" fill="white" transform="translate(0.1875 2.44)"/>
</clipPath>
<clipPath id="clip3_6511_8569">
<rect width="14" height="16" fill="white" transform="translate(0.1875 2.44)"/>
</clipPath>
</defs>
</svg>