<svg xmlns="http://www.w3.org/2000/svg" width="15" height="15" viewBox="0 0 15 15" fill="none">
<g clip-path="url(#clip0_6511_7892)">
<path d="M7.04938 7.23336H0.609375V2.56669C0.609375 2.10003 0.780486 1.69558 1.12271 1.35336C1.46493 1.01114 1.88493 0.840027 2.38271 0.840027H7.04938V7.23336ZM1.77604 6.06669H5.88271V2.00669H2.38271C2.19604 2.00669 2.04826 2.06114 1.93938 2.17003C1.83049 2.27892 1.77604 2.41114 1.77604 2.56669V6.06669ZM14.6094 7.23336H8.21604V0.840027H12.8827C13.3494 0.840027 13.7538 1.01114 14.096 1.35336C14.4383 1.69558 14.6094 2.11558 14.6094 2.61336V7.23336ZM9.38271 6.06669H13.4427V2.56669C13.4427 2.41114 13.3883 2.27892 13.2794 2.17003C13.1705 2.06114 13.0383 2.00669 12.8827 2.00669H9.38271V6.06669ZM7.04938 14.84H2.38271C1.88493 14.84 1.46493 14.6689 1.12271 14.3267C0.780486 13.9845 0.609375 13.58 0.609375 13.1134V8.40003H7.04938V14.84ZM1.77604 9.56669V13.0667C1.77604 13.2534 1.83049 13.4011 1.93938 13.51C2.04826 13.6189 2.19604 13.6734 2.38271 13.6734H5.88271V9.56669H1.77604ZM12.8827 14.84H8.21604V8.40003H14.6094V13.0667C14.6094 13.5645 14.4383 13.9845 14.096 14.3267C13.7538 14.6689 13.3338 14.84 12.836 14.84H12.8827ZM9.38271 13.6734H12.8827C13.0383 13.6734 13.1705 13.6189 13.2794 13.51C13.3883 13.4011 13.4427 13.2534 13.4427 13.0667V9.56669H9.38271V13.6734Z" fill="#ABABAB"/>
</g>
<defs>
<clipPath id="clip0_6511_7892">
<rect width="14" height="14" fill="white" transform="matrix(1 0 0 -1 0.609375 14.84)"/>
</clipPath>
</defs>
</svg>