<svg xmlns="http://www.w3.org/2000/svg" width="15" height="15" viewBox="0 0 15 15" fill="none">
<path d="M0.800781 2.56669V7.23336H7.24078V0.840027H2.57411C2.07634 0.840027 1.65634 1.01114 1.31411 1.35336C0.971892 1.69558 0.800781 2.11558 0.800781 2.61336V2.56669ZM6.07411 6.06669H1.96745V2.56669C1.96745 2.41114 2.02189 2.27892 2.13078 2.17003C2.23967 2.06114 2.37189 2.00669 2.52745 2.00669H6.07411V6.06669ZM0.800781 13.0667C0.800781 13.5645 0.971892 13.9845 1.31411 14.3267C1.65634 14.6689 2.06078 14.84 2.52745 14.84H7.24078V8.40003H0.800781V13.0667ZM1.96745 9.56669H6.07411V13.6734H2.57411C2.38745 13.6734 2.23967 13.6189 2.13078 13.51C2.02189 13.4011 1.96745 13.2534 1.96745 13.0667V9.56669ZM12.4674 13.3467V2.33336L13.9608 3.87336L14.8008 3.03336L13.1208 1.35336C12.7786 1.01114 12.3663 0.840027 11.8841 0.840027C11.4019 0.840027 10.9897 1.01114 10.6474 1.35336L8.96745 3.03336L9.80745 3.87336L11.3008 2.33336V13.3467L9.80745 11.8067L8.96745 12.6467L10.6474 14.3267C10.9897 14.6689 11.4019 14.84 11.8841 14.84C12.3663 14.84 12.7786 14.6689 13.1208 14.3267L14.8008 12.6467L13.9608 11.8067L12.4674 13.3467Z" fill="#ABABAB"/>
</svg>