<svg xmlns="http://www.w3.org/2000/svg" width="31" height="31" viewBox="0 0 31 31" fill="none">
<rect x="0.46875" y="0.919922" width="30" height="30" rx="15" fill="#3BB77E"/>
<g clip-path="url(#clip0_6511_2034)">
<g clip-path="url(#clip1_6511_2034)">
<path d="M21.1836 12.6423C20.8223 12.81 20.4094 12.9132 20.0223 12.9778C20.2159 12.952 20.4868 12.6036 20.603 12.4745C20.7707 12.2681 20.9126 12.0229 20.9901 11.7649C21.003 11.739 21.003 11.7132 20.9901 11.7003C20.9642 11.6874 20.9513 11.7003 20.9255 11.7003C20.4868 11.9326 20.0352 12.1132 19.5449 12.2294C19.5062 12.2423 19.4804 12.2294 19.4546 12.2036C19.4159 12.152 19.3771 12.1132 19.3384 12.0745C19.132 11.9068 18.9126 11.7649 18.6675 11.6616C18.3449 11.5326 17.9836 11.4681 17.6352 11.4939C17.2997 11.5197 16.9642 11.61 16.6675 11.7649C16.3707 11.9197 16.0997 12.1391 15.8804 12.41C15.661 12.681 15.4933 13.0036 15.4159 13.352C15.3384 13.6874 15.3384 14.01 15.39 14.3455C15.403 14.3971 15.39 14.41 15.3384 14.3971C13.4288 14.1261 11.8546 13.4552 10.5771 11.9971C10.5255 11.9326 10.4868 11.9326 10.4481 11.9971C9.89328 12.8358 10.1642 14.1778 10.861 14.8487C10.9513 14.9391 11.0546 15.0294 11.1578 15.1068C11.1191 15.1197 10.6546 15.0681 10.2417 14.8487C10.19 14.81 10.1642 14.8358 10.1513 14.9003C10.1513 14.9907 10.1513 15.0681 10.1642 15.1713C10.2675 16.0229 10.861 16.81 11.661 17.1068C11.7513 17.1455 11.8675 17.1842 11.9707 17.1971C11.79 17.2358 11.5965 17.2616 11.0675 17.2229C11.003 17.21 10.9771 17.2487 11.003 17.3003C11.39 18.3842 12.2417 18.7068 12.8868 18.8874C12.9771 18.9003 13.0546 18.9003 13.1449 18.9261C13.1449 18.9391 13.132 18.9391 13.132 18.9391C12.9255 19.2616 12.19 19.5068 11.8417 19.6229C11.2223 19.8423 10.5384 19.9326 9.88037 19.8681C9.77715 19.8552 9.75134 19.8552 9.72553 19.8681C9.69973 19.881 9.72553 19.9068 9.75134 19.9326C9.88037 20.0229 10.0223 20.1003 10.1642 20.1778C10.5771 20.3971 11.0159 20.5778 11.4675 20.7068C13.8159 21.352 16.4739 20.8745 18.2417 19.1197C19.6223 17.752 20.1126 15.8552 20.1126 13.9455C20.1126 13.8681 20.203 13.8294 20.2546 13.7907C20.6159 13.5197 20.8997 13.1971 21.1707 12.8358C21.2352 12.7584 21.2223 12.681 21.2223 12.6552V12.6423C21.2223 12.6165 21.2352 12.6165 21.1836 12.6423Z" fill="white"/>
<path fill-rule="evenodd" clip-rule="evenodd" d="M13.1319 20.9523C13.1706 20.9523 14.0997 20.9523 13.1319 20.9523C13.119 20.9523 13.261 20.9523 13.1319 20.9523ZM13.1319 20.9523C12.9384 20.9523 13.119 20.9523 13.1319 20.9523V20.9523ZM13.519 20.9652C13.519 20.9394 13.7255 20.9652 13.519 20.9652C13.519 20.9523 13.5448 20.9652 13.519 20.9652ZM17.5964 11.52C17.5835 11.5329 17.5706 11.5329 17.5448 11.52C17.5577 11.52 17.5835 11.52 17.5964 11.52Z" fill="white"/>
</g>
</g>
<defs>
<clipPath id="clip0_6511_2034">
<rect width="16" height="30" fill="white" transform="translate(7.46875 0.919922)"/>
</clipPath>
<clipPath id="clip1_6511_2034">
<rect width="16" height="30" fill="white" transform="translate(7.46875 0.919922)"/>
</clipPath>
</defs>
</svg>