<svg xmlns="http://www.w3.org/2000/svg" width="17" height="17" viewBox="0 0 17 17" fill="none">
<g clip-path="url(#clip0_6511_7284)">
<path d="M16.1992 2.22333H3.02589V2.01C2.95477 1.51222 2.73255 1.09444 2.35922 0.756666C1.98589 0.418888 1.53255 0.25 0.999219 0.25H0.199219V1.58333H0.999219C1.177 1.58333 1.32811 1.63667 1.45255 1.74333C1.577 1.85 1.657 1.99222 1.69255 2.17L2.75922 11.13C2.79477 11.6633 2.99922 12.09 3.37255 12.41C3.74589 12.73 4.19922 12.9078 4.73255 12.9433H13.5326V11.5567H4.73255C4.55477 11.5567 4.40366 11.5033 4.27922 11.3967C4.15477 11.29 4.07477 11.1478 4.03922 10.97L3.98589 10.2233H14.7592L16.1992 2.22333ZM13.6392 8.89H3.82589L3.18589 3.55667H14.5992L13.6392 8.89ZM3.55922 14.9167C3.52366 15.2722 3.63922 15.5833 3.90589 15.85C4.17255 16.1167 4.49255 16.25 4.86589 16.25C5.23922 16.25 5.55033 16.1167 5.79922 15.85C6.04811 15.5833 6.18144 15.2722 6.19922 14.9167C6.217 14.5611 6.09255 14.25 5.82589 13.9833C5.55922 13.7167 5.23922 13.5833 4.86589 13.5833C4.49255 13.5833 4.18144 13.7167 3.93255 13.9833C3.68366 14.25 3.55922 14.5611 3.55922 14.9167ZM10.2259 14.9167C10.1903 15.2722 10.3059 15.5833 10.5726 15.85C10.8392 16.1167 11.1592 16.25 11.5326 16.25C11.9059 16.25 12.217 16.1167 12.4659 15.85C12.7148 15.5833 12.8481 15.2722 12.8659 14.9167C12.8837 14.5611 12.7592 14.25 12.4926 13.9833C12.2259 13.7167 11.9059 13.5833 11.5326 13.5833C11.1592 13.5833 10.8481 13.7167 10.5992 13.9833C10.3503 14.25 10.2259 14.5611 10.2259 14.9167Z" fill="white"/>
</g>
<defs>
<clipPath id="clip0_6511_7284">
<rect width="16.5" height="16" fill="white" transform="matrix(1 0 0 -1 0.199219 16.25)"/>
</clipPath>
</defs>
</svg>