
<svg xmlns="http://www.w3.org/2000/svg" width="13" height="13" viewBox="0 0 13 13" fill="none">
<g clip-path="url(#clip0_6511_9223)">
<path d="M5.21187 12.03L4.85187 11.75C3.97187 11.0034 3.13188 10.1634 2.33187 9.23003C0.891875 7.55003 0.171875 6.15003 0.171875 5.03003C0.171875 4.12336 0.398542 3.28336 0.851875 2.51003C1.30521 1.7367 1.91854 1.12336 2.69187 0.67003C3.46521 0.216696 4.30521 -0.00997066 5.21187 -0.00997066C6.11854 -0.00997066 6.95854 0.216696 7.73187 0.67003C8.50521 1.12336 9.11854 1.7367 9.57187 2.51003C10.0252 3.28336 10.2519 4.12336 10.2519 5.03003C10.2519 6.15003 9.53187 7.55003 8.09187 9.23003C7.31854 10.1367 6.47854 10.9767 5.57188 11.75L5.21187 12.03ZM5.21187 1.07003C4.49187 1.07003 3.83187 1.25003 3.23187 1.61003C2.63188 1.97003 2.15187 2.45003 1.79188 3.05003C1.43187 3.65003 1.25187 4.3167 1.25187 5.05003C1.25187 5.78336 1.74521 6.76336 2.73187 7.99003C3.42521 8.87003 4.25187 9.7367 5.21187 10.59C6.17188 9.7367 6.99854 8.87003 7.69187 7.99003C8.67854 6.76336 9.17188 5.78336 9.17188 5.05003C9.17188 4.3167 8.99187 3.65003 8.63188 3.05003C8.27187 2.45003 7.79187 1.97003 7.19187 1.61003C6.59188 1.25003 5.93187 1.07003 5.21187 1.07003ZM5.21187 7.03003C4.65188 7.03003 4.17854 6.8367 3.79187 6.45003C3.40521 6.06336 3.21187 5.59003 3.21187 5.03003C3.21187 4.47003 3.40521 3.9967 3.79187 3.61003C4.17854 3.22336 4.65188 3.03003 5.21187 3.03003C5.77187 3.03003 6.24521 3.22336 6.63188 3.61003C7.01854 3.9967 7.21187 4.47003 7.21187 5.03003C7.21187 5.59003 7.01854 6.06336 6.63188 6.45003C6.24521 6.8367 5.77187 7.03003 5.21187 7.03003ZM5.21187 4.03003C4.94521 4.03003 4.71187 4.13003 4.51187 4.33003C4.31187 4.53003 4.21187 4.76336 4.21187 5.03003C4.21187 5.2967 4.31187 5.53003 4.51187 5.73003C4.71187 5.93003 4.94521 6.03003 5.21187 6.03003C5.47854 6.03003 5.71187 5.93003 5.91187 5.73003C6.11188 5.53003 6.21187 5.2967 6.21187 5.03003C6.21187 4.76336 6.11188 4.53003 5.91187 4.33003C5.71187 4.13003 5.47854 4.03003 5.21187 4.03003Z" fill="white"/>
</g>
<defs>
<clipPath id="clip0_6511_9223">
<rect width="12.5" height="12" fill="white" transform="matrix(1 0 0 -1 0.171875 12.03)"/>
</clipPath>
</defs>
</svg>