<svg xmlns="http://www.w3.org/2000/svg" width="31" height="31" viewBox="0 0 31 31" fill="none">
<rect x="0.46875" y="0.919922" width="30" height="30" rx="15" fill="#3BB77E"/>
<g clip-path="url(#clip0_6511_2050)">
<g clip-path="url(#clip1_6511_2050)">
<path d="M21.3012 14.3715C21.3012 12.9651 20.1658 11.8296 18.7593 11.8296H12.1787C10.7722 11.8296 9.63672 12.9651 9.63672 14.3715V17.4683C9.63672 18.8748 10.7722 20.0102 12.1787 20.0102H18.7593C20.1658 20.0102 21.3012 18.8748 21.3012 17.4683V14.3715ZM17.1464 16.0748L14.527 17.5199C14.4109 17.5844 14.3077 17.4941 14.3077 17.3651V14.4102C14.3077 14.2812 14.4109 14.1909 14.527 14.2554L17.1722 15.7651C17.2883 15.8425 17.2625 16.0102 17.1464 16.0748Z" fill="white"/>
</g>
</g>
<defs>
<clipPath id="clip0_6511_2050">
<rect width="16" height="30" fill="white" transform="translate(7.46875 0.919922)"/>
</clipPath>
<clipPath id="clip1_6511_2050">
<rect width="16" height="30" fill="white" transform="translate(7.46875 0.919922)"/>
</clipPath>
</defs>
</svg>